<svg id="Layer_1" data-name="Layer 1" xmlns="http://www.w3.org/2000/svg" width="50" height="50" viewBox="0 0 50 50"><defs><style>.cls-1{fill:#39b54a;stroke:#fff;stroke-miterlimit:10;stroke-width:3.65px;}.cls-2{fill:#fff;}</style></defs><rect class="cls-1" x="4" y="4" width="42" height="42" rx="21"/><path class="cls-2" d="M22.65,32.5a1,1,0,0,1-.73.3,1,1,0,0,1-.72-.3l-5.8-5.79a1.55,1.55,0,0,1,0-2.18l.73-.72a1.52,1.52,0,0,1,2.17,0l3.62,3.61,9.78-9.77a1.53,1.53,0,0,1,2.17,0l.73.72a1.55,1.55,0,0,1,0,2.18Z"/></svg>